<svg width="512" height="512" viewBox="0 0 512 512" fill="none" xmlns="http://www.w3.org/2000/svg">
<g clip-path="url(#clip0_63_3)">
<path d="M72.2345 60.9805C73.5 60.9833 74.7655 60.9861 76.0694 60.989C77.5201 60.9945 77.5201 60.9945 79.0001 61C79.0298 62.8911 79.0298 62.8911 79.0601 64.8203C79.1366 69.5244 79.2252 74.2283 79.3175 78.9321C79.3556 80.963 79.3905 82.9939 79.422 85.0249C79.4679 87.9543 79.5259 90.8833 79.586 93.8125C79.5976 94.7118 79.6091 95.6111 79.621 96.5376C79.8314 105.645 81.3909 113.952 87.7227 120.887C96.4696 129.182 105.704 129.503 117.375 129.438C119.251 129.467 119.251 129.467 121.164 129.498C130.348 129.493 137.972 128.061 145.875 123.25C153.656 115.011 155.28 106.452 155.414 95.4727C155.434 94.4837 155.453 93.4948 155.473 92.4759C155.532 89.3382 155.579 86.2004 155.625 83.0625C155.663 80.9264 155.702 78.7903 155.742 76.6543C155.84 71.4363 155.919 66.2184 156 61C170.19 61 184.38 61 199 61C199.313 82.375 199.313 82.375 199.388 89.0601C199.42 90.8395 199.454 92.619 199.488 94.3984C199.495 95.2973 199.501 96.1962 199.507 97.1223C199.7 105.733 201.076 113.464 207 120C207 120.66 207 121.32 207 122C207.578 122.287 208.155 122.575 208.75 122.871C210.171 123.584 211.588 124.304 213 125.035C213.99 125.544 213.99 125.544 215 126.062C215.99 126.575 215.99 126.575 217 127.098C223.32 129.949 230.268 129.262 237.063 129.312C238.336 129.342 239.608 129.371 240.92 129.4C248.952 129.454 258.536 129.366 264.672 123.365C265.11 122.914 265.549 122.464 266 122C266.66 122 267.32 122 268 122C268.288 121.421 268.575 120.842 268.871 120.246C269.58 118.836 270.3 117.431 271.035 116.035C271.374 115.384 271.713 114.733 272.063 114.062C272.404 113.414 272.746 112.766 273.098 112.098C275.463 106.6 275.212 100.768 275.316 94.8867C275.348 93.4324 275.348 93.4324 275.379 91.9487C275.445 88.8617 275.504 85.7746 275.563 82.6875C275.606 80.5905 275.649 78.4935 275.693 76.3965C275.801 71.2644 275.9 66.1323 276 61C290.19 61 304.38 61 319 61C319.313 82.375 319.313 82.375 319.388 89.0601C319.42 90.8395 319.454 92.619 319.488 94.3984C319.498 95.7468 319.498 95.7468 319.507 97.1223C319.7 105.733 321.076 113.464 327 120C327 120.66 327 121.32 327 122C327.866 122.431 327.866 122.431 328.75 122.871C330.171 123.584 331.588 124.304 333 125.035C333.66 125.374 334.32 125.713 335 126.062C335.66 126.404 336.32 126.746 337 127.098C343.32 129.949 350.268 129.262 357.063 129.312C358.336 129.342 359.608 129.371 360.92 129.4C368.952 129.454 378.536 129.366 384.672 123.365C385.11 122.914 385.549 122.464 386 122C386.66 122 387.32 122 388 122C388.288 121.421 388.575 120.842 388.871 120.246C389.58 118.836 390.3 117.431 391.035 116.035C391.374 115.384 391.713 114.733 392.063 114.062C392.404 113.414 392.746 112.766 393.098 112.098C395.463 106.6 395.212 100.768 395.316 94.8867C395.348 93.4324 395.348 93.4324 395.379 91.9487C395.445 88.8617 395.504 85.7746 395.563 82.6875C395.606 80.5905 395.649 78.4935 395.693 76.3965C395.8 71.2644 395.902 66.1322 396 61C398.35 60.9676 400.7 60.9442 403.051 60.9258C404.36 60.912 405.668 60.8982 407.017 60.884C425.326 61.4171 443.201 70.0422 456 83C471.483 99.6388 476.658 118.793 476.454 140.951C476.453 142.697 476.454 144.443 476.456 146.189C476.457 150.88 476.434 155.571 476.406 160.262C476.38 165.183 476.378 170.104 476.374 175.024C476.361 184.321 476.328 193.617 476.288 202.913C476.243 213.506 476.221 224.098 476.201 234.691C476.16 256.461 476.089 278.23 476 300C475.252 299.52 474.504 299.041 473.734 298.547C472.749 297.917 471.764 297.288 470.749 296.639C469.286 295.703 469.286 295.703 467.795 294.748C439.364 276.962 405.773 271.049 372.934 278.004C351.598 283.017 330.165 293.315 314.824 309.262C313 311 313 311 311 311C310.627 311.862 310.627 311.862 310.246 312.742C308.82 315.327 307.14 317.028 305.063 319.125C281.533 344.963 274.858 378.401 275.821 412.229C276.195 420.107 277.706 427.475 280 435C280.214 435.723 280.429 436.446 280.65 437.19C284.705 450.538 290.659 462.792 299 474C299 474.66 299 475.32 299 476C269.063 476.091 239.126 476.162 209.189 476.204C205.648 476.209 202.107 476.214 198.567 476.22C197.509 476.221 197.509 476.221 196.431 476.223C185.044 476.24 173.657 476.272 162.269 476.309C150.57 476.346 138.871 476.368 127.172 476.376C120.607 476.382 114.042 476.394 107.477 476.423C101.29 476.45 95.1018 476.458 88.9138 476.452C86.6513 476.454 84.3887 476.461 82.1261 476.477C59.351 476.624 40.5084 472.739 23.0001 457C22.0836 456.223 22.0836 456.223 21.1485 455.43C9.2873 444.652 0.912588 427.218 -0.187667 411.28C-0.262338 408.176 -0.276126 405.077 -0.267349 401.971C-0.27188 400.786 -0.276413 399.6 -0.281082 398.379C-0.291507 395.11 -0.293053 391.842 -0.290687 388.573C-0.290277 385.039 -0.301338 381.505 -0.310806 377.972C-0.32738 371.056 -0.332913 364.14 -0.33403 357.223C-0.334982 351.597 -0.339106 345.971 -0.345436 340.345C-0.363039 324.371 -0.372274 308.397 -0.370773 292.423C-0.370693 291.563 -0.370611 290.703 -0.370529 289.816C-0.370447 288.955 -0.370369 288.094 -0.370285 287.207C-0.369472 273.259 -0.388598 259.312 -0.416809 245.365C-0.44559 231.021 -0.459343 216.678 -0.457618 202.334C-0.456956 194.29 -0.462367 186.247 -0.48397 178.203C-0.502251 171.352 -0.506479 164.502 -0.492958 157.651C-0.486462 154.162 -0.486182 150.673 -0.503662 147.183C-0.609897 121.217 3.08288 100.11 22.0001 81C36.1621 68.4312 53.2404 60.9256 72.2345 60.9805ZM59.0001 223C55.3761 228.693 54.004 234.31 55.0001 241C56.9229 247.196 60.3047 252.704 65.9006 256.181C72.1177 259.122 77.4975 259.573 84.3165 259.496C85.3724 259.498 86.4283 259.499 87.5162 259.501C89.7357 259.499 91.9552 259.487 94.1746 259.467C97.5564 259.438 100.937 259.446 104.318 259.459C106.484 259.453 108.65 259.444 110.816 259.434C111.819 259.437 112.821 259.439 113.854 259.442C120.724 259.351 126.468 258.526 132.207 254.422C137.421 248.993 140.099 244.23 140.438 236.562C140.232 230.317 138.635 225.935 134.457 221.281C127.383 214.677 119.803 213.541 110.473 213.602C109.484 213.599 108.496 213.596 107.478 213.593C105.398 213.591 103.318 213.596 101.238 213.609C98.0753 213.625 94.9143 213.609 91.752 213.59C89.7214 213.592 87.6908 213.596 85.6602 213.602C84.7256 213.595 83.7909 213.589 82.828 213.583C73.5545 213.681 65.1806 215.651 59.0001 223ZM201 221C196.806 226.393 194.641 231.564 195.125 238.438C196.148 245.198 198.458 250.097 203.875 254.375C210.44 259.133 216.985 259.308 224.805 259.301C226.362 259.307 226.362 259.307 227.95 259.314C230.14 259.319 232.331 259.32 234.521 259.316C237.857 259.313 241.192 259.336 244.527 259.361C246.662 259.364 248.796 259.364 250.93 259.363C251.92 259.372 252.909 259.382 253.929 259.391C262.836 259.332 269.495 257.505 276 251C280.154 245.094 281.478 240.171 281 233C279.473 226.785 276.63 221.264 271.039 217.777C266.194 215.265 261.953 213.887 256.466 213.839C255.575 213.829 254.683 213.82 253.764 213.81C252.807 213.806 251.85 213.801 250.863 213.797C249.869 213.791 248.875 213.785 247.851 213.78C245.747 213.77 243.643 213.764 241.539 213.76C238.342 213.75 235.145 213.719 231.947 213.688C229.899 213.681 227.85 213.676 225.801 213.672C224.38 213.653 224.38 213.653 222.931 213.634C214.716 213.662 207.011 214.989 201 221ZM341 221.938C340.464 222.586 339.928 223.234 339.375 223.902C335.574 229.702 335.258 235.236 336 242C337.807 248.574 342.39 253.306 348 257C353.598 259.443 358.991 259.323 364.988 259.336C366.046 259.343 367.104 259.349 368.194 259.356C370.427 259.366 372.66 259.371 374.893 259.371C378.291 259.375 381.687 259.411 385.084 259.449C387.261 259.455 389.437 259.459 391.613 259.461C392.62 259.475 393.626 259.49 394.663 259.504C402.226 259.456 408.418 257.954 414.34 253.07C419.237 247.108 421.532 242.181 421.309 234.367C420.545 228.506 418.113 223.675 413.813 219.625C406.709 214.331 399.042 213.539 390.41 213.566C389.426 213.561 388.441 213.556 387.427 213.551C385.357 213.544 383.287 213.545 381.217 213.554C378.074 213.562 374.934 213.534 371.791 213.502C369.768 213.5 367.746 213.501 365.723 213.504C364.796 213.493 363.87 213.481 362.916 213.47C354.877 213.554 346.238 215.325 341 221.938ZM59.7501 327.312C55.8575 332.135 54.7627 336.732 55.0001 342.875C55.8653 349.409 58.896 354.546 64.0704 358.637C68.5876 361.545 72.3474 363.111 77.7718 363.193C79.2246 363.217 79.2246 363.217 80.7068 363.242C85.151 363.286 89.595 363.327 94.0394 363.35C96.3757 363.367 98.7121 363.394 101.048 363.432C104.43 363.487 107.81 363.509 111.191 363.523C112.224 363.546 113.257 363.569 114.321 363.592C122.1 363.57 128.585 361.745 134.618 356.628C138.527 352.362 140.919 347.255 141.063 341.477C140.528 334.064 138.627 329.287 133.063 324.25C125.83 318.062 118.698 317.844 109.508 317.832C108.151 317.827 108.151 317.827 106.766 317.822C104.858 317.817 102.95 317.815 101.043 317.815C98.1415 317.813 95.2409 317.794 92.3399 317.775C90.4792 317.772 88.6186 317.77 86.7579 317.77C85.8993 317.762 85.0407 317.755 84.1561 317.748C74.2858 317.785 66.6733 319.854 59.7501 327.312ZM201.336 325.934C196.246 332.508 195.183 337.704 196 346C197.998 352.461 202.01 356.958 207.563 360.75C211.372 362.704 214.661 363.128 218.917 363.177C220.379 363.196 220.379 363.196 221.871 363.216C222.919 363.223 223.967 363.231 225.047 363.238C226.132 363.246 227.217 363.254 228.335 363.263C230.632 363.277 232.928 363.287 235.225 363.295C238.723 363.312 242.221 363.356 245.719 363.4C247.953 363.411 250.188 363.419 252.422 363.426C253.462 363.443 254.502 363.461 255.573 363.479C263.475 363.455 268.64 361.749 274.75 356.75C279.423 351.038 281.735 346.006 281.379 338.52C280.32 331.479 277.348 326.478 271.727 322.148C265.08 317.727 257.467 317.842 249.762 317.832C248.882 317.829 248.001 317.825 247.095 317.822C245.238 317.817 243.381 317.815 241.525 317.815C238.707 317.813 235.89 317.794 233.072 317.775C231.26 317.772 229.449 317.77 227.637 317.77C226.805 317.762 225.974 317.755 225.117 317.748C216.133 317.782 207.518 318.751 201.336 325.934Z" fill="black"/>
<path d="M399.438 288.75C400.114 288.749 400.79 288.749 401.487 288.748C411.345 288.764 420.495 289.147 430 292C431.195 292.329 432.39 292.657 433.621 292.996C462.676 301.734 485.716 321.852 500.25 348.25C508.899 364.613 512.4 381.648 512.375 400.062C512.375 400.745 512.374 401.427 512.374 402.131C512.333 413.153 511.512 423.49 508 434C507.687 434.956 507.687 434.956 507.367 435.931C501.943 451.914 493.404 465.658 482 478C481.346 478.736 480.691 479.472 480.016 480.23C466.808 494.369 448.432 503.856 430 509C428.925 509.32 427.85 509.639 426.743 509.969C409.373 514.321 388.17 514.097 371 509C369.206 508.507 369.206 508.507 367.375 508.004C340.407 499.885 316.72 481.275 302.721 456.759C289.034 431.218 283.706 399.134 291.739 370.863C292.148 369.572 292.568 368.284 293 367C293.22 366.347 293.44 365.694 293.666 365.021C303.964 335.497 324.246 312.224 352.375 298.625C367.526 291.611 382.828 288.765 399.438 288.75ZM383.25 348.75C378.49 355.626 378.702 363.142 378.735 371.219C378.733 372.276 378.731 373.333 378.729 374.423C378.728 376.648 378.731 378.874 378.74 381.099C378.75 384.489 378.74 387.879 378.727 391.27C378.728 393.44 378.731 395.611 378.735 397.781C378.731 398.787 378.727 399.792 378.722 400.828C378.772 408.341 378.984 415.607 384.375 421.375C384.961 422.022 385.546 422.669 386.149 423.336C392.439 428.989 400.846 428.159 408.805 428.168C409.843 428.171 410.881 428.175 411.95 428.178C414.141 428.183 416.331 428.185 418.521 428.185C421.857 428.187 425.192 428.206 428.528 428.225C430.662 428.228 432.796 428.229 434.93 428.23C436.415 428.241 436.415 428.241 437.93 428.252C445.415 428.228 452.63 427.995 458.375 422.625C459.023 422.04 459.67 421.455 460.336 420.852C464.491 416.229 464.43 411.939 464.313 405.91C463.731 400.495 460.958 397.958 457.25 394.25C449.343 388.776 440.248 389.757 431 389.875C429.64 389.885 428.279 389.894 426.918 389.902C423.612 389.926 420.306 389.959 417 390C417.011 389.133 417.021 388.266 417.032 387.373C417.066 384.123 417.091 380.872 417.11 377.622C417.12 376.222 417.134 374.821 417.151 373.421C417.775 359.529 417.775 359.529 411.625 347.625C411.04 346.978 410.455 346.331 409.852 345.664C405.229 341.509 400.939 341.57 394.911 341.687C389.496 342.269 386.958 345.042 383.25 348.75Z" fill="black"/>
<path d="M349.156 -0.53125C350.154 -0.53699 350.154 -0.53699 351.172 -0.542847C352.571 -0.545553 353.969 -0.538281 355.367 -0.521484C357.495 -0.500051 359.619 -0.521323 361.746 -0.546875C363.112 -0.544231 364.477 -0.539106 365.843 -0.53125C367.687 -0.524482 367.687 -0.524482 369.568 -0.517578C373.764 0.115327 375.812 1.20341 379 4C381.96 9.52591 382.433 14.0194 382.388 20.2207C382.393 21.1176 382.398 22.0144 382.404 22.9385C382.417 25.8862 382.408 28.8335 382.398 31.7812C382.4 33.8396 382.403 35.8979 382.407 37.9562C382.411 42.2633 382.405 46.5703 382.391 50.8774C382.374 56.3887 382.383 61.8995 382.401 67.4107C382.412 71.659 382.409 75.9072 382.401 80.1555C382.399 82.1872 382.401 84.2189 382.408 86.2506C382.416 89.0938 382.404 91.9362 382.388 94.7793C382.397 96.0295 382.397 96.0295 382.406 97.3049C382.349 102.605 381.497 106.298 379 111C372.578 117.101 366.082 116.215 357.687 116.25C356.463 116.271 355.239 116.291 353.978 116.312C352.2 116.32 352.2 116.32 350.386 116.328C349.306 116.337 348.225 116.347 347.112 116.356C342.27 115.802 339.023 114.078 335.687 110.562C332.487 105.703 332.846 100.79 332.838 95.1199C332.831 93.7752 332.831 93.7752 332.823 92.4034C332.809 89.4395 332.802 86.4757 332.796 83.5117C332.791 81.4491 332.785 79.3865 332.779 77.3239C332.769 72.9989 332.763 68.6739 332.759 64.3489C332.754 58.8141 332.73 53.2795 332.701 47.7448C332.683 43.4836 332.678 39.2225 332.676 34.9613C332.673 32.9212 332.665 30.8811 332.652 28.8411C332.635 25.9833 332.637 23.1261 332.643 20.2683C332.634 19.4301 332.625 18.592 332.615 17.7284C332.653 12.4103 333.471 8.70897 336 4C340.305 0.222086 343.503 -0.510501 349.156 -0.53125Z" fill="black"/>
<path d="M229.156 -0.53125C230.154 -0.53699 230.154 -0.53699 231.172 -0.542847C232.571 -0.545553 233.969 -0.538281 235.367 -0.521484C237.495 -0.500051 239.619 -0.521323 241.746 -0.546875C243.112 -0.544231 244.477 -0.539106 245.843 -0.53125C247.687 -0.524482 247.687 -0.524482 249.568 -0.517578C253.764 0.115327 255.812 1.20341 259 4C261.96 9.52591 262.433 14.0194 262.388 20.2207C262.393 21.1176 262.398 22.0144 262.404 22.9385C262.417 25.8862 262.408 28.8335 262.398 31.7812C262.4 33.8396 262.403 35.8979 262.407 37.9562C262.411 42.2633 262.405 46.5703 262.391 50.8774C262.374 56.3887 262.383 61.8995 262.401 67.4107C262.412 71.659 262.409 75.9072 262.401 80.1555C262.399 82.1872 262.401 84.2189 262.408 86.2506C262.416 89.0938 262.404 91.9362 262.388 94.7793C262.397 96.0295 262.397 96.0295 262.406 97.3049C262.349 102.605 261.497 106.298 259 111C252.578 117.101 246.082 116.215 237.687 116.25C236.463 116.271 235.239 116.291 233.978 116.312C232.2 116.32 232.2 116.32 230.386 116.328C229.306 116.337 228.225 116.347 227.112 116.356C222.27 115.802 219.023 114.078 215.687 110.562C212.487 105.703 212.846 100.79 212.838 95.1199C212.831 93.7752 212.831 93.7752 212.823 92.4034C212.809 89.4395 212.802 86.4757 212.796 83.5117C212.791 81.4491 212.785 79.3865 212.779 77.3239C212.769 72.9989 212.763 68.6739 212.759 64.3489C212.754 58.8141 212.73 53.2795 212.701 47.7448C212.683 43.4836 212.678 39.2225 212.676 34.9613C212.673 32.9212 212.665 30.8811 212.652 28.8411C212.635 25.9833 212.637 23.1261 212.643 20.2683C212.634 19.4301 212.625 18.592 212.615 17.7284C212.653 12.4103 213.471 8.70897 216 4C220.305 0.222086 223.503 -0.510501 229.156 -0.53125Z" fill="black"/>
<path d="M109.375 -0.56641C110.406 -0.575708 110.406 -0.575708 111.458 -0.585194C112.904 -0.592259 114.349 -0.589176 115.795 -0.57642C117.995 -0.562535 120.19 -0.596682 122.39 -0.63477C123.802 -0.635721 125.213 -0.633862 126.625 -0.62891C127.896 -0.629635 129.167 -0.63036 130.476 -0.631108C135.176 0.210666 136.703 1.56791 140 5C142.512 9.58727 142.289 14.1022 142.274 19.1931C142.279 20.1108 142.284 21.0285 142.29 21.974C142.304 25.0022 142.303 28.0303 142.3 31.0586C142.304 33.167 142.309 35.2754 142.313 37.3838C142.321 41.8012 142.321 46.2186 142.315 50.636C142.309 56.2931 142.326 61.9498 142.35 67.6069C142.364 71.9606 142.365 76.3143 142.362 80.6681C142.363 82.7537 142.368 84.8393 142.378 86.9248C142.39 89.8426 142.384 92.7597 142.372 95.6775C142.383 96.9658 142.383 96.9658 142.395 98.2802C142.351 103.266 141.755 106.678 139 111C132.471 117.039 126.153 116.215 117.687 116.25C116.463 116.271 115.239 116.291 113.978 116.312C112.2 116.32 112.2 116.32 110.386 116.328C109.306 116.337 108.225 116.347 107.112 116.356C102.302 115.806 99.0449 114.074 95.6871 110.625C92.4266 105.553 92.8464 100.045 92.8385 94.2058C92.831 92.8926 92.831 92.8926 92.8234 91.5529C92.8089 88.6642 92.802 85.7755 92.7965 82.8867C92.7907 80.8728 92.785 78.8588 92.7792 76.8449C92.7687 72.6242 92.7629 68.4036 92.7594 64.1829C92.7539 58.786 92.7299 53.3895 92.7014 47.9928C92.6827 43.8328 92.6776 39.6729 92.676 35.5129C92.673 33.5239 92.665 31.5348 92.6518 29.5458C92.6347 26.7578 92.6367 23.9704 92.6432 21.1824C92.6339 20.3681 92.6247 19.5538 92.6152 18.7148C92.6553 13.1768 93.6751 9.04932 95.9996 4C100.309 0.104593 103.658 -0.517494 109.375 -0.56641Z" fill="black"/>
</g>
<defs>
<clipPath id="clip0_63_3">
<rect width="512" height="512" fill="white"/>
</clipPath>
</defs>
</svg>
